<svg width="50" height="50" viewBox="0 0 50 50" fill="none" xmlns="http://www.w3.org/2000/svg">
<path d="M7.22222 45C6.59259 45 6.06444 44.7867 5.63778 44.36C5.21259 43.9348 5 43.4074 5 42.7778C5 42.1482 5.21259 41.6207 5.63778 41.1956C6.06444 40.7689 6.59259 40.5556 7.22222 40.5556H38.3333C38.963 40.5556 39.4904 40.7689 39.9156 41.1956C40.3422 41.6207 40.5556 42.1482 40.5556 42.7778C40.5556 43.4074 40.3422 43.9348 39.9156 44.36C39.4904 44.7867 38.963 45 38.3333 45H7.22222ZM36.1111 16.1111H40.5556V9.44444H36.1111V16.1111ZM13.8889 36.1111C11.4444 36.1111 9.35185 35.2407 7.61111 33.5C5.87037 31.7593 5 29.6667 5 27.2222V9.44444C5 8.22222 5.43556 7.17556 6.30667 6.30444C7.1763 5.43481 8.22222 5 9.44444 5H16.1111V10.3333L12.1111 13.5556C12.037 13.6296 11.8889 13.9259 11.6667 14.4444V23.8889C11.6667 24.1852 11.7778 24.4444 12 24.6667C12.2222 24.8889 12.4815 25 12.7778 25H21.6667C21.963 25 22.2222 24.8889 22.4444 24.6667C22.6667 24.4444 22.7778 24.1852 22.7778 23.8889V14.4444C22.7778 14.3704 22.6296 14.0741 22.3333 13.5556L18.3333 10.3333V5H40.5556C41.7778 5 42.8244 5.43481 43.6956 6.30444C44.5652 7.17556 45 8.22222 45 9.44444V16.1111C45 17.3333 44.5652 18.3793 43.6956 19.2489C42.8244 20.12 41.7778 20.5556 40.5556 20.5556H36.1111V27.2222C36.1111 29.6667 35.2407 31.7593 33.5 33.5C31.7593 35.2407 29.6667 36.1111 27.2222 36.1111H13.8889Z" fill="#1689FC"/>
</svg>
