<svg width="120" height="22" viewBox="0 0 120 22" fill="none" xmlns="http://www.w3.org/2000/svg">
<path d="M9.60272 5.40749C8.96708 5.40749 8.39955 5.5437 7.90011 5.81612C7.40068 6.07945 6.97389 6.46538 6.61975 6.97389C6.26561 7.48241 5.99319 8.10443 5.8025 8.83995C5.62089 9.5664 5.53008 10.3927 5.53008 11.319C5.53008 12.5721 5.68899 13.6254 6.00681 14.479C6.32463 15.3326 6.8059 15.9773 7.45062 16.4132C8.10443 16.849 8.92168 17.067 9.90238 17.067C10.7923 17.067 11.6459 16.9444 12.4631 16.6992C13.2894 16.454 14.1203 16.1589 14.9557 15.8138V20.3632C14.0749 20.7537 13.1714 21.0352 12.2452 21.2077C11.328 21.3802 10.3519 21.4665 9.31669 21.4665C7.1555 21.4665 5.38479 21.0397 4.00454 20.1862C2.63337 19.3235 1.62089 18.1294 0.967083 16.6039C0.322361 15.0783 0 13.3076 0 11.2917C0 9.78434 0.208854 8.40409 0.626561 7.15096C1.05335 5.89784 1.67537 4.81271 2.49262 3.89557C3.30988 2.96935 4.31782 2.25653 5.51646 1.75709C6.72418 1.24858 8.10443 0.994325 9.65721 0.994325C10.6198 0.994325 11.6322 1.10783 12.6947 1.33485C13.7662 1.55278 14.8104 1.90692 15.8275 2.39728L14.1793 6.63337C13.4529 6.28831 12.7174 5.99773 11.9728 5.76163C11.2281 5.52554 10.4381 5.40749 9.60272 5.40749Z" fill="black"/>
<path d="M33.2758 13.4438C33.2758 14.7333 33.0988 15.8774 32.7446 16.8763C32.3905 17.8751 31.8774 18.7151 31.2054 19.3961C30.5335 20.0772 29.7208 20.5948 28.7673 20.9489C27.8138 21.294 26.7378 21.4665 25.5392 21.4665C24.4222 21.4665 23.3961 21.294 22.4608 20.9489C21.5346 20.5948 20.7264 20.0772 20.0363 19.3961C19.3462 18.7151 18.8104 17.8751 18.4291 16.8763C18.0568 15.8774 17.8706 14.7333 17.8706 13.4438C17.8706 11.7367 18.1793 10.2928 18.7968 9.11237C19.4234 7.9319 20.3133 7.03292 21.4665 6.41544C22.6288 5.79796 24.0136 5.48922 25.6209 5.48922C27.101 5.48922 28.4177 5.79796 29.5709 6.41544C30.7242 7.03292 31.6277 7.9319 32.2815 9.11237C32.9444 10.2928 33.2758 11.7367 33.2758 13.4438ZM23.2781 13.4438C23.2781 14.3246 23.3553 15.0692 23.5096 15.6776C23.664 16.277 23.9092 16.7355 24.2452 17.0533C24.5902 17.3621 25.0397 17.5165 25.5936 17.5165C26.1476 17.5165 26.588 17.3621 26.9149 17.0533C27.2418 16.7355 27.4779 16.277 27.6232 15.6776C27.7775 15.0692 27.8547 14.3246 27.8547 13.4438C27.8547 12.563 27.7775 11.8275 27.6232 11.2372C27.4779 10.647 27.2372 10.202 26.9012 9.90238C26.5743 9.60272 26.1294 9.45289 25.5664 9.45289C24.7582 9.45289 24.1725 9.78888 23.8093 10.4608C23.4552 11.1328 23.2781 12.1271 23.2781 13.4438Z" fill="black"/>
<path d="M70.2974 1.28036L65.3939 21.1941H59.0329L57.126 12.5176C57.0897 12.3541 57.0306 12.0772 56.9489 11.6867C56.8763 11.2963 56.79 10.8513 56.6901 10.3519C56.5993 9.85244 56.5131 9.36209 56.4313 8.88082C56.3587 8.39046 56.3042 7.9773 56.2679 7.64132C56.2316 7.9773 56.1725 8.39046 56.0908 8.88082C56.0091 9.36209 55.9183 9.85244 55.8184 10.3519C55.7276 10.8513 55.6368 11.2963 55.546 11.6867C55.4642 12.0772 55.4052 12.3541 55.3689 12.5176L53.4484 21.1941H47.0874L42.1566 1.28036H47.3462L49.5119 11.2645C49.5664 11.5096 49.639 11.8593 49.7299 12.3133C49.8297 12.7582 49.9296 13.2486 50.0295 13.7843C50.1385 14.311 50.2384 14.8195 50.3292 15.3099C50.42 15.8002 50.4835 16.2089 50.5199 16.5358C50.5925 15.9728 50.6879 15.3326 50.8059 14.6152C50.933 13.8978 51.0692 13.1714 51.2145 12.4359C51.3689 11.6913 51.5142 11.0011 51.6504 10.3655C51.7866 9.72985 51.9047 9.21226 52.0045 8.81271L53.7616 1.28036H58.7469L60.4495 8.81271C60.5403 9.20318 60.6538 9.72077 60.79 10.3655C60.9353 11.0011 61.0806 11.6913 61.2259 12.4359C61.3802 13.1805 61.521 13.916 61.6481 14.6425C61.7753 15.3598 61.8706 15.9909 61.9342 16.5358C61.9886 16.0817 62.0795 15.5096 62.2066 14.8195C62.3337 14.1203 62.4608 13.4438 62.588 12.79C62.7242 12.1271 62.8286 11.6277 62.9012 11.2917L65.1078 1.28036H70.2974Z" fill="black"/>
<path d="M87.2962 13.4438C87.2962 14.7333 87.1192 15.8774 86.765 16.8763C86.4109 17.8751 85.8978 18.7151 85.2259 19.3961C84.5539 20.0772 83.7412 20.5948 82.7877 20.9489C81.8343 21.294 80.7582 21.4665 79.5596 21.4665C78.4427 21.4665 77.4166 21.294 76.4813 20.9489C75.555 20.5948 74.7469 20.0772 74.0568 19.3961C73.3666 18.7151 72.8309 17.8751 72.4495 16.8763C72.0772 15.8774 71.891 14.7333 71.891 13.4438C71.891 11.7367 72.1998 10.2928 72.8173 9.11237C73.4438 7.9319 74.3337 7.03292 75.4869 6.41544C76.6493 5.79796 78.034 5.48922 79.6413 5.48922C81.1215 5.48922 82.4381 5.79796 83.5914 6.41544C84.7446 7.03292 85.6481 7.9319 86.3019 9.11237C86.9648 10.2928 87.2962 11.7367 87.2962 13.4438ZM77.2985 13.4438C77.2985 14.3246 77.3757 15.0692 77.5301 15.6776C77.6844 16.277 77.9296 16.7355 78.2656 17.0533C78.6107 17.3621 79.0602 17.5165 79.6141 17.5165C80.168 17.5165 80.6084 17.3621 80.9353 17.0533C81.2622 16.7355 81.4983 16.277 81.6436 15.6776C81.798 15.0692 81.8751 14.3246 81.8751 13.4438C81.8751 12.563 81.798 11.8275 81.6436 11.2372C81.4983 10.647 81.2577 10.202 80.9217 9.90238C80.5948 9.60272 80.1498 9.45289 79.5868 9.45289C78.7787 9.45289 78.193 9.78888 77.8297 10.4608C77.4756 11.1328 77.2985 12.1271 77.2985 13.4438Z" fill="black"/>
<path d="M99.664 5.48922C99.9546 5.48922 100.259 5.51192 100.577 5.55732C100.894 5.59364 101.131 5.62543 101.285 5.65267L100.808 10.6788C100.636 10.6334 100.413 10.597 100.141 10.5698C99.8683 10.5335 99.4869 10.5153 98.9966 10.5153C98.6606 10.5153 98.3019 10.5471 97.9205 10.6107C97.5392 10.6742 97.1759 10.8104 96.8309 11.0193C96.4949 11.2191 96.2179 11.5278 96 11.9455C95.7821 12.3541 95.6731 12.9081 95.6731 13.6073V21.1941H90.3473V5.76163H94.311L95.1419 8.22701H95.4007C95.6822 7.7185 96.0409 7.25993 96.4767 6.85131C96.9217 6.4336 97.4166 6.10216 97.9614 5.85698C98.5153 5.6118 99.0829 5.48922 99.664 5.48922Z" fill="black"/>
<path d="M108.804 0V8.33598C108.804 8.96254 108.776 9.66175 108.722 10.4336C108.676 11.1964 108.604 11.891 108.504 12.5176H108.613C108.822 12.1998 109.085 11.8002 109.403 11.319C109.721 10.8377 110.007 10.4381 110.261 10.1203L113.721 5.76163H119.659L114.306 12.3269L120 21.1941H113.911L110.533 15.664L108.804 16.9852V21.1941H103.451V0H108.804Z" fill="black"/>
</svg>
