<svg width="50" height="50" viewBox="0 0 50 50" fill="none" xmlns="http://www.w3.org/2000/svg">
<path d="M5 7.33333C5 6.66667 5.22222 6.11111 5.66666 5.66666C6.11111 5.22222 6.66666 5 7.33333 5L16.3333 5C16.8519 5 17.3059 5.16667 17.6956 5.5C18.0837 5.83333 18.3333 6.25926 18.4444 6.77778L20 14.4444C20.0741 14.963 20.0281 15.4911 19.8622 16.0289C19.6948 16.5652 19.4444 17 19.1111 17.3333L13.8889 22.5556C15.5926 25.3704 17.6111 27.9444 19.9444 30.2778C22.2778 32.6111 24.7778 34.5556 27.4444 36.1111L32.8889 30.7778C33.2222 30.4444 33.6022 30.2311 34.0289 30.1378C34.4541 30.0459 34.9259 30.037 35.4444 30.1111L43.2222 31.5556C43.7407 31.6296 44.1667 31.8704 44.5 32.2778C44.8333 32.6852 45 33.1481 45 33.6667L45 42.6667C45 43.3333 44.7778 43.8889 44.3333 44.3333C43.8889 44.7778 43.3333 45 42.6667 45C37.8889 45 33.2318 43.9348 28.6956 41.8044C24.1578 39.6756 20.1393 36.8607 16.64 33.36C13.1393 29.8607 10.3244 25.843 8.19555 21.3067C6.06518 16.7689 5 12.1111 5 7.33333Z" fill="#1689FC"/>
</svg>
