<svg width="50" height="50" viewBox="0 0 50 50" fill="none" xmlns="http://www.w3.org/2000/svg">
<path d="M15.3847 5C13.7526 5 12.1873 5.64835 11.0333 6.80242C9.87918 7.95649 9.23083 9.52174 9.23083 11.1538V14.2308H40.0001V11.1538C40.0001 9.52174 39.3517 7.95649 38.1976 6.80242C37.0436 5.64835 35.4783 5 33.8462 5H15.3847ZM33.8462 29.6154H15.3847C14.5686 29.6154 13.786 29.9396 13.209 30.5166C12.6319 31.0936 12.3078 31.8763 12.3078 32.6923V41.9231C12.3078 42.7391 12.6319 43.5218 13.209 44.0988C13.786 44.6758 14.5686 45 15.3847 45H33.8462C34.6623 45 35.4449 44.6758 36.0219 44.0988C36.599 43.5218 36.9231 42.7391 36.9231 41.9231V32.6923C36.9231 31.8763 36.599 31.0936 36.0219 30.5166C35.4449 29.9396 34.6623 29.6154 33.8462 29.6154Z" fill="#1689FC"/>
<path d="M0 23.4617C0 21.8296 0.64835 20.2644 1.80242 19.1103C2.95649 17.9562 4.52174 17.3079 6.15385 17.3079H43.0769C44.709 17.3079 46.2743 17.9562 47.4283 19.1103C48.5824 20.2644 49.2308 21.8296 49.2308 23.4617V32.6925C49.2308 34.3246 48.5824 35.8898 47.4283 37.0439C46.2743 38.198 44.709 38.8463 43.0769 38.8463H40V32.6925C40 31.0604 39.3517 29.4951 38.1976 28.3411C37.0435 27.187 35.4783 26.5386 33.8462 26.5386H15.3846C13.7525 26.5386 12.1873 27.187 11.0332 28.3411C9.87912 29.4951 9.23077 31.0604 9.23077 32.6925V38.8463H6.15385C4.52174 38.8463 2.95649 38.198 1.80242 37.0439C0.64835 35.8898 0 34.3246 0 32.6925V23.4617ZM7.69231 26.5386C8.10033 26.5386 8.49165 26.3765 8.78016 26.088C9.06868 25.7995 9.23077 25.4082 9.23077 25.0002C9.23077 24.5921 9.06868 24.2008 8.78016 23.9123C8.49165 23.6238 8.10033 23.4617 7.69231 23.4617C7.28428 23.4617 6.89297 23.6238 6.60445 23.9123C6.31593 24.2008 6.15385 24.5921 6.15385 25.0002C6.15385 25.4082 6.31593 25.7995 6.60445 26.088C6.89297 26.3765 7.28428 26.5386 7.69231 26.5386Z" fill="#1689FC"/>
</svg>
