<svg width="50" height="50" viewBox="0 0 50 50" fill="none" xmlns="http://www.w3.org/2000/svg">
<path d="M41 33.4941C41 32.9031 40.8836 32.3179 40.6574 31.772C40.4312 31.226 40.0997 30.73 39.6819 30.3122C39.264 29.8945 38.7679 29.5631 38.2219 29.3372C37.676 29.1112 37.0909 28.995 36.5 28.9953H13.5C12.909 28.995 12.3237 29.1113 11.7776 29.3374C11.2315 29.5635 10.7353 29.895 10.3174 30.313C9.89952 30.7309 9.56806 31.2272 9.34201 31.7734C9.11595 32.3196 8.99974 32.9049 9 33.4961V35.3364C9 36.4786 9.356 37.5947 10.02 38.5269C13.106 42.8556 18.15 45 24.992 45C31.832 45 36.882 42.8576 39.972 38.5289C40.639 37.5971 40.9984 36.4803 41 35.3344V33.4961V33.4941ZM34.994 15.0029C34.9943 12.8965 34.3296 10.8437 33.0947 9.13737C31.8598 7.431 30.1178 6.15814 28.1171 5.50028C26.1164 4.84242 23.959 4.83314 21.9527 5.47378C19.9464 6.11441 18.1935 7.37225 16.944 9.06794C16.7991 9.02203 16.648 8.99842 16.496 8.99793H11.5C11.1022 8.99793 10.7206 9.15599 10.4393 9.43734C10.158 9.71869 10 10.1003 10 10.4982V21.496C9.99947 22.2188 10.1413 22.9345 10.4175 23.6024C10.6937 24.2702 11.0987 24.8771 11.6095 25.3884C12.1203 25.8996 12.7268 26.3051 13.3943 26.5818C14.0619 26.8585 14.7774 27.001 15.5 27.001H16V26.993H16.02C16.3588 26.9935 16.6923 26.9077 16.9888 26.7438C17.2854 26.5798 17.5353 26.343 17.715 26.0557C17.8948 25.7684 17.9985 25.4401 18.0163 25.1017C18.0342 24.7632 17.9656 24.4258 17.817 24.1213C17.6684 23.8167 17.4447 23.5549 17.1671 23.3607C16.8894 23.1665 16.5668 23.0461 16.2298 23.011C15.8928 22.9759 15.5524 23.0272 15.2406 23.1601C14.9289 23.2929 14.6561 23.503 14.448 23.7704C14.0149 23.5695 13.6484 23.2487 13.3918 22.846C13.1352 22.4433 12.9992 21.9756 13 21.498V21H14.496C15.256 21 15.962 20.7559 16.536 20.3438C17.6928 22.1781 19.4143 23.5866 21.4411 24.3571C23.4679 25.1276 25.6902 25.2183 27.7731 24.6156C29.856 24.0129 31.6865 22.7495 32.989 21.0157C34.2914 19.2818 34.9951 17.1716 34.994 15.0029ZM14.994 14.7909C14.9911 14.9322 14.9911 15.0736 14.994 15.215V17.4974C14.994 17.63 14.9413 17.7572 14.8476 17.851C14.7538 17.9448 14.6266 17.9974 14.494 17.9974H13V12.0004H14.996V14.7909H14.994Z" fill="#1689FC"/>
</svg>
