<svg width="50" height="50" viewBox="0 0 50 50" fill="none" xmlns="http://www.w3.org/2000/svg">
<path d="M39.5161 8.87085H10.4839C9.59309 8.87085 8.87097 9.59297 8.87097 10.4838V39.516C8.87097 40.4068 9.59309 41.1289 10.4839 41.1289H39.5161C40.4069 41.1289 41.129 40.4068 41.129 39.516V10.4838C41.129 9.59297 40.4069 8.87085 39.5161 8.87085Z" fill="#57A4FF"/>
<path d="M39.5161 8.06445H10.4839C9.84222 8.06445 9.22684 8.31935 8.77313 8.77307C8.31941 9.22678 8.06451 9.84216 8.06451 10.4838V39.5161C8.06451 40.1577 8.31941 40.7731 8.77313 41.2268C9.22684 41.6805 9.84222 41.9354 10.4839 41.9354H39.5161C40.1578 41.9354 40.7732 41.6805 41.2269 41.2268C41.6806 40.7731 41.9355 40.1577 41.9355 39.5161V10.4838C41.9355 9.84216 41.6806 9.22678 41.2269 8.77307C40.7732 8.31935 40.1578 8.06445 39.5161 8.06445ZM40.3226 39.5161C40.3226 39.7299 40.2376 39.9351 40.0864 40.0863C39.9351 40.2376 39.73 40.3225 39.5161 40.3225H10.4839C10.27 40.3225 10.0649 40.2376 9.91362 40.0863C9.76238 39.9351 9.67742 39.7299 9.67742 39.5161V10.4838C9.67742 10.2699 9.76238 10.0648 9.91362 9.91356C10.0649 9.76232 10.27 9.67736 10.4839 9.67736H39.5161C39.73 9.67736 39.9351 9.76232 40.0864 9.91356C40.2376 10.0648 40.3226 10.2699 40.3226 10.4838V39.5161Z" fill="#1689FC"/>
<path d="M20.1613 6.45161H29.8387C30.4804 6.45161 31.0957 6.19672 31.5495 5.743C32.0032 5.28928 32.2581 4.67391 32.2581 4.03226V2.41935C32.2581 1.7777 32.0032 1.16233 31.5495 0.708613C31.0957 0.254896 30.4804 0 29.8387 0H20.1613C19.5196 0 18.9043 0.254896 18.4506 0.708613C17.9968 1.16233 17.7419 1.7777 17.7419 2.41935V4.03226C17.7419 4.67391 17.9968 5.28928 18.4506 5.743C18.9043 6.19672 19.5196 6.45161 20.1613 6.45161ZM19.3548 2.41935C19.3548 2.20547 19.4398 2.00035 19.5911 1.84911C19.7423 1.69787 19.9474 1.6129 20.1613 1.6129H29.8387C30.0526 1.6129 30.2577 1.69787 30.409 1.84911C30.5602 2.00035 30.6452 2.20547 30.6452 2.41935V4.03226C30.6452 4.24614 30.5602 4.45127 30.409 4.60251C30.2577 4.75374 30.0526 4.83871 29.8387 4.83871H20.1613C19.9474 4.83871 19.7423 4.75374 19.5911 4.60251C19.4398 4.45127 19.3548 4.24614 19.3548 4.03226V2.41935Z" fill="#1689FC"/>
<path d="M29.8387 43.5483H20.1613C19.5196 43.5483 18.9043 43.8032 18.4506 44.257C17.9968 44.7107 17.7419 45.326 17.7419 45.9677V47.5806C17.7419 48.2223 17.9968 48.8376 18.4506 49.2913C18.9043 49.7451 19.5196 50 20.1613 50H29.8387C30.4804 50 31.0957 49.7451 31.5495 49.2913C32.0032 48.8376 32.2581 48.2223 32.2581 47.5806V45.9677C32.2581 45.326 32.0032 44.7107 31.5495 44.257C31.0957 43.8032 30.4804 43.5483 29.8387 43.5483ZM30.6452 47.5806C30.6452 47.7945 30.5602 47.9996 30.409 48.1508C30.2577 48.3021 30.0526 48.387 29.8387 48.387H20.1613C19.9474 48.387 19.7423 48.3021 19.5911 48.1508C19.4398 47.9996 19.3548 47.7945 19.3548 47.5806V45.9677C19.3548 45.7538 19.4398 45.5487 19.5911 45.3974C19.7423 45.2462 19.9474 45.1612 20.1613 45.1612H29.8387C30.0526 45.1612 30.2577 45.2462 30.409 45.3974C30.5602 45.5487 30.6452 45.7538 30.6452 45.9677V47.5806Z" fill="#1689FC"/>
<path d="M47.5807 17.7419H45.9678C45.3261 17.7419 44.7107 17.9968 44.257 18.4506C43.8033 18.9043 43.5484 19.5196 43.5484 20.1613V29.8387C43.5484 30.4804 43.8033 31.0957 44.257 31.5495C44.7107 32.0032 45.3261 32.2581 45.9678 32.2581H47.5807C48.2223 32.2581 48.8377 32.0032 49.2914 31.5495C49.7451 31.0957 50 30.4804 50 29.8387V20.1613C50 19.5196 49.7451 18.9043 49.2914 18.4506C48.8377 17.9968 48.2223 17.7419 47.5807 17.7419ZM48.3871 29.8387C48.3871 30.0526 48.3021 30.2577 48.1509 30.409C47.9997 30.5602 47.7945 30.6452 47.5807 30.6452H45.9678C45.7539 30.6452 45.5487 30.5602 45.3975 30.409C45.2463 30.2577 45.1613 30.0526 45.1613 29.8387V20.1613C45.1613 19.9474 45.2463 19.7423 45.3975 19.5911C45.5487 19.4398 45.7539 19.3548 45.9678 19.3548H47.5807C47.7945 19.3548 47.9997 19.4398 48.1509 19.5911C48.3021 19.7423 48.3871 19.9474 48.3871 20.1613V29.8387Z" fill="#1689FC"/>
<path d="M4.03226 17.7419H2.41935C1.7777 17.7419 1.16233 17.9968 0.708613 18.4506C0.254896 18.9043 0 19.5196 0 20.1613V29.8387C0 30.4804 0.254896 31.0957 0.708613 31.5495C1.16233 32.0032 1.7777 32.2581 2.41935 32.2581H4.03226C4.67391 32.2581 5.28928 32.0032 5.743 31.5495C6.19672 31.0957 6.45161 30.4804 6.45161 29.8387V20.1613C6.45161 19.5196 6.19672 18.9043 5.743 18.4506C5.28928 17.9968 4.67391 17.7419 4.03226 17.7419ZM4.83871 29.8387C4.83871 30.0526 4.75374 30.2577 4.60251 30.409C4.45127 30.5602 4.24614 30.6452 4.03226 30.6452H2.41935C2.20547 30.6452 2.00035 30.5602 1.84911 30.409C1.69787 30.2577 1.6129 30.0526 1.6129 29.8387V20.1613C1.6129 19.9474 1.69787 19.7423 1.84911 19.5911C2.00035 19.4398 2.20547 19.3548 2.41935 19.3548H4.03226C4.24614 19.3548 4.45127 19.4398 4.60251 19.5911C4.75374 19.7423 4.83871 19.9474 4.83871 20.1613V29.8387Z" fill="#1689FC"/>
<path d="M17.742 37.0967H12.0968C11.8829 37.0967 11.6778 37.1816 11.5265 37.3329C11.3753 37.4841 11.2903 37.6892 11.2903 37.9031C11.2903 38.117 11.3753 38.3221 11.5265 38.4734C11.6778 38.6246 11.8829 38.7096 12.0968 38.7096H17.742C17.9558 38.7096 18.161 38.6246 18.3122 38.4734C18.4634 38.3221 18.5484 38.117 18.5484 37.9031C18.5484 37.6892 18.4634 37.4841 18.3122 37.3329C18.161 37.1816 17.9558 37.0967 17.742 37.0967Z" fill="#1689FC"/>
<path d="M20.9678 37.0967H20.1613C19.9474 37.0967 19.7423 37.1816 19.5911 37.3329C19.4398 37.4841 19.3549 37.6892 19.3549 37.9031C19.3549 38.117 19.4398 38.3221 19.5911 38.4734C19.7423 38.6246 19.9474 38.7096 20.1613 38.7096H20.9678C21.1816 38.7096 21.3868 38.6246 21.538 38.4734C21.6892 38.3221 21.7742 38.117 21.7742 37.9031C21.7742 37.6892 21.6892 37.4841 21.538 37.3329C21.3868 37.1816 21.1816 37.0967 20.9678 37.0967Z" fill="#1689FC"/>
</svg>
