<svg width="50" height="50" viewBox="0 0 50 50" fill="none" xmlns="http://www.w3.org/2000/svg">
<path d="M24.9024 38.8345C26.6821 38.8345 28.125 40.2774 28.125 42.0571C28.125 43.8369 26.6821 45.2798 24.9024 45.2798C23.1226 45.2798 21.6797 43.8369 21.6797 42.0571C21.6797 40.2774 23.1225 38.8345 24.9024 38.8345ZM49.3785 17.607C50.1676 16.8716 50.2111 15.6356 49.4757 14.8466C43.0568 7.95957 34.3647 4.1666 24.9996 4.1665C15.6354 4.1666 6.94327 7.95957 0.524325 14.8466C-0.211124 15.6356 -0.167569 16.8715 0.621494 17.607C1.41065 18.3424 2.64649 18.299 3.38194 17.5099C9.05382 11.4243 16.7311 8.07285 25.0003 8.07276C33.2689 8.07285 40.9462 11.4243 46.618 17.5099C47.0027 17.9227 47.5242 18.1314 48.0472 18.1314C48.5241 18.1314 49.0022 17.9577 49.3785 17.607ZM42.2935 25.6745C43.0591 24.9147 43.0638 23.678 42.3038 22.9124C37.5591 18.1317 31.4136 15.499 24.9995 15.4992C18.584 15.4993 12.4385 18.1321 7.69513 22.9126C6.93536 23.6783 6.94025 24.9149 7.70587 25.6747C8.47159 26.4344 9.70822 26.4296 10.468 25.664C14.4724 21.6282 19.6331 19.4056 24.9995 19.4055C30.3646 19.4053 35.5254 21.628 39.5312 25.6642C39.913 26.0488 40.4152 26.2414 40.9175 26.2414C41.415 26.2414 41.9126 26.0525 42.2935 25.6745ZM18.0811 33.7767C19.89 31.9845 22.542 30.8267 24.8381 30.8267C24.8384 30.8267 24.8388 30.8267 24.8391 30.8267H24.9804C24.9808 30.8267 24.9809 30.8267 24.9813 30.8267C27.2771 30.8267 29.9293 31.9846 31.738 33.7767C32.5042 34.5358 33.7409 34.5303 34.5001 33.7638C35.2593 32.9975 35.2535 31.7608 34.4873 31.0017C31.9463 28.4842 28.304 26.9204 24.9816 26.9204C24.9812 26.9204 24.9805 26.9204 24.9801 26.9204H24.8394C24.8388 26.9204 24.8385 26.9204 24.8379 26.9204C21.5153 26.9204 17.8728 28.4843 15.3319 31.0017C14.5655 31.7608 14.5598 32.9976 15.3191 33.7638C15.701 34.1492 16.2037 34.3423 16.7066 34.3423C17.2033 34.3423 17.7003 34.1539 18.0811 33.7767Z" fill="#1689FC"/>
</svg>
